<svg xmlns="http://www.w3.org/2000/svg" viewBox="0 0 170.73 171.36"><defs><style>.cls-1{fill:#fedd59;}.cls-2{fill:#22487a;}.cls-3{fill:#fe9f64;}.cls-4{fill:#fe9b5e;}.cls-5{fill:#fea168;}.cls-6{fill:#fe995b;}</style></defs><g id="Layer_2" data-name="Layer 2"><g id="Layer_1-2" data-name="Layer 1"><path class="cls-1" d="M117.37,25.21c-3.74,4.9-6.87,9.22-10.31,13.28-.64.75-2.69,1-3.79.6-16.6-5.81-32.42-3.89-46.5,6.28-15.86,11.47-23,27.48-20.06,47.12,3.33,22,17.53,36.85,39.22,41.64a46.87,46.87,0,0,0,26.73-2.2c2.5-.92,3.93-.69,5.49,1.67,2.65,4,5.76,7.74,9.15,12.21-4.18,1.62-7.88,3.27-11.71,4.46-2.53.79-3.68,2-3.73,4.72-.07,3.85-.55,7.68-.71,11.53-.12,3.09-1.83,4.68-4.66,4.74-7.23.15-14.46.12-21.69,0-3.74,0-4.66-2.84-5-5.86-.39-4-.44-8-.95-11.89a4.24,4.24,0,0,0-2.24-2.7c-4.51-2.06-9.09-4-13.75-5.67a5.12,5.12,0,0,0-4.17.57c-3.06,2.32-5.78,5.1-8.72,7.6-3.41,2.89-5.24,2.83-8.37-.26-4.61-4.55-9.14-9.18-13.75-13.73-2.57-2.53-2.9-5-.34-7.78a116.48,116.48,0,0,0,8-9.39,5.08,5.08,0,0,0,.49-4.11c-1.67-4.53-3.9-8.86-5.49-13.41-.71-2-1.58-2.76-3.63-2.83-4-.11-7.94-.52-11.92-.69C1.63,101,0,99.47,0,96c.06-6.73,0-13.45,0-20.18C0,71.22,1.18,70,5.94,69.71c3.6-.24,7.19-.61,10.8-.65,2.21,0,3.19-.78,3.92-3a122.08,122.08,0,0,1,5.23-12.71c.82-1.77,1.17-2.94-.38-4.55-2.84-3-5.36-6.22-8.06-9.32-2.27-2.6-2.31-5.18.13-7.6,5-4.91,10-9.76,15-14.62,2.36-2.3,4.69-1.77,7,.17,3.12,2.67,6.31,5.27,9.31,8.07,1.4,1.31,2.48,1.39,4.21.58a135.09,135.09,0,0,1,13.05-5.45c2.15-.74,2.91-1.72,3-3.92.19-4.21.71-8.41,1.07-12.61C70.42,1.27,71.94,0,74.83,0Q85.68.09,96.52,0c3.19,0,4.45,1.64,4.62,4.58.22,3.85.6,7.69.73,11.53.07,2.42.76,3.72,3.4,4.44C109.19,21.62,112.9,23.44,117.37,25.21Z"/><path class="cls-2" d="M80.34,67.47c-3.09,7.8-5.85,14.77-8.78,22.19,1.69.07,3,.17,4.27.18,5.32,0,7.12,1.56,8.08,6.85.37,2-.34,3.09-2.51,3.06-3.61,0-7.23.11-10.83,0-2.16-.09-3.57.41-4.07,2.7a18.08,18.08,0,0,1-1.13,2.75c-2.77,6.81-1.31,5.52-8.46,5.62-4.13.06-4.46-.42-2.95-4.2,3.86-9.66,7.77-19.3,11.66-28.94Q68.8,69.72,72,61.79c1.55-3.9,4-6.56,8.57-6.43,4.35.12,6.53,2.82,8,6.58,5.94,14.83,12,29.61,18,44.41,1.76,4.36,1.66,4.09-2.81,4.54-4.62.47-6.72-1.2-8.33-5.57C90.83,92.9,85.66,80.7,80.34,67.47Z"/><path class="cls-3" d="M167.74,105h-5.16a18.2,18.2,0,0,1-.33,3.16A7.2,7.2,0,0,1,161,110c-.46-.6-1.3-1.18-1.32-1.8-.14-3.09-.14-6.19,0-9.28,0-.68.77-1.33,1.18-2a10.44,10.44,0,0,1,1.43,2.15,11.41,11.41,0,0,1,.3,2.74h4.69a4.82,4.82,0,0,0,.5-.71c.61-1.41,1.19-2.83,1.79-4.25a34.85,34.85,0,0,1,1.07,4.66,31.85,31.85,0,0,1,0,5.94,8.1,8.1,0,0,1-1.26,2.53,13.5,13.5,0,0,1-1.26-2.29A14.83,14.83,0,0,1,167.74,105Z"/><path class="cls-4" d="M156.17,110c-2.31,0-4.63,0-6.94,0a2.28,2.28,0,0,1-1.37-.48c-3-2.69-1.87-6.21-1.61-9.42.19-2.51,2.25-3.36,4.61-3.34a2.69,2.69,0,0,1,.75,0c1.57.47,3.14,1,4.71,1.46-1.52.42-3,1.23-4.55,1.17-3-.12-3.27,1.5-3.12,3.74s-.68,4.76,3,4.64a37.93,37.93,0,0,1,4.73.42Z"/><path class="cls-5" d="M122.27,99.7a10.5,10.5,0,0,1-2.44-.27,13.42,13.42,0,0,1-2-1.24c.72-.49,1.4-1.34,2.16-1.4a40.39,40.39,0,0,1,6.69,0,8.68,8.68,0,0,1,2.7,1.23c-.84.49-1.66,1-2.53,1.45a8.23,8.23,0,0,1-1.89.31c0,2.57.11,5.15-.06,7.71-.07.87-.87,1.68-1.34,2.52-.43-.88-1.18-1.74-1.24-2.65C122.15,104.9,122.27,102.44,122.27,99.7Z"/><path class="cls-6" d="M135.34,106.32c1.18.25,2.37.44,3.53.78,1.36.39,2.69.92,4,1.39-1.4.52-2.77,1.39-4.19,1.48s-3.67,0-4.45-1a7.05,7.05,0,0,1-1.24-5.09c.13-.78,2.43-1.45,3.83-1.73a13.86,13.86,0,0,1,4.45,0c.55.07,1,.83,1.51,1.27-.52.41-1,1.14-1.55,1.18-1.89.14-3.8,0-5.7,0Z"/><path class="cls-3" d="M132,96.82c3.93,0,7,0,10.1.09.12,0,.53,1.61.23,1.93C141.14,100.08,134.19,99.18,132,96.82Z"/></g></g></svg>