<svg xmlns="http://www.w3.org/2000/svg" viewBox="0 0 266.8 62.45"><defs><style>.cls-1{font-size:28px;fill:#fff;font-family:RobotInvaders-Italic, Robot Invaders;font-style:italic;}.cls-2{letter-spacing:-0.2em;}.cls-3{fill:#fddd59;}.cls-4{fill:#23497a;}.cls-5{fill:#f89e66;}.cls-6{fill:#f89a60;}.cls-7{fill:#f8a06a;}.cls-8{fill:#f8995e;}</style></defs><g id="Layer_2" data-name="Layer 2"><g id="Layer_1-2" data-name="Layer 1"><text class="cls-1" transform="translate(77.1 40.08)">adrasti<tspan class="cls-2" x="113.48" y="0">.</tspan><tspan x="114.84" y="0">tech</tspan></text><g id="Layer_2-2" data-name="Layer 2"><g id="Layer_1-2-2" data-name="Layer 1-2"><path class="cls-3" d="M44.63,9.19C43.21,11,42,12.55,40.71,14a1.71,1.71,0,0,1-1.44.22,19.07,19.07,0,0,0-17.68,2.28c-6,4.18-8.75,10-7.63,17.17,1.27,8,6.67,13.43,14.91,15.18A18.55,18.55,0,0,0,39,48.08a1.5,1.5,0,0,1,2.09.61c1,1.45,2.19,2.82,3.47,4.45-1.58.59-3,1.19-4.45,1.62-1,.29-1.4.73-1.42,1.72,0,1.4-.21,2.8-.27,4.2a1.63,1.63,0,0,1-1.77,1.73c-2.75.05-5.5,0-8.25,0-1.42,0-1.77-1-1.9-2.14-.15-1.45-.17-2.91-.36-4.33a1.53,1.53,0,0,0-.85-1c-1.72-.75-3.46-1.46-5.23-2.07a2.06,2.06,0,0,0-1.59.21c-1.16.84-2.19,1.86-3.31,2.77-1.3,1.05-2,1-3.18-.1-1.76-1.65-3.48-3.34-5.23-5-1-.92-1.11-1.82-.13-2.83a44.88,44.88,0,0,0,3-3.43A1.78,1.78,0,0,0,9.89,43c-.64-1.66-1.49-3.23-2.09-4.89a1.29,1.29,0,0,0-1.38-1c-1.52,0-3-.19-4.53-.25C.62,36.81,0,36.25,0,35c0-2.45,0-4.9,0-7.35C0,26,.45,25.51,2.26,25.4c1.37-.08,2.73-.22,4.11-.23a1.35,1.35,0,0,0,1.49-1.1,43.83,43.83,0,0,1,2-4.63c.32-.64.45-1.07-.14-1.66-1.08-1.09-2-2.26-3.06-3.39a1.76,1.76,0,0,1,.05-2.77c1.9-1.79,3.8-3.56,5.7-5.33a1.81,1.81,0,0,1,2.66.06c1.19,1,2.4,1.92,3.54,2.94a1.25,1.25,0,0,0,1.6.21c1.62-.74,3.28-1.4,5-2A1.37,1.37,0,0,0,26.3,6.09c.07-1.53.27-3.07.4-4.6C26.78.46,27.36,0,28.46,0,31.21,0,34,0,36.7,0a1.54,1.54,0,0,1,1.76,1.67c.08,1.4.23,2.8.28,4.2A1.45,1.45,0,0,0,40,7.49,46.8,46.8,0,0,1,44.63,9.19Z"/><path class="cls-4" d="M30.55,24.59l-3.34,8.08c.64,0,1.14.07,1.63.07,2,0,2.7.57,3.07,2.5.14.72-.13,1.12-1,1.11-1.37,0-2.75,0-4.11,0-.83,0-1.36.15-1.55,1a7.47,7.47,0,0,1-.43,1c-1.06,2.48-.5,2-3.22,2-1.57,0-1.7-.15-1.12-1.53q2.2-5.28,4.43-10.54l2.43-5.79a3.28,3.28,0,0,1,6.3.05c2.26,5.41,4.56,10.79,6.84,16.19.67,1.58.64,1.49-1.06,1.65s-2.56-.44-3.17-2C34.54,33.85,32.57,29.41,30.55,24.59Z"/><path class="cls-5" d="M63.79,38.26h-2a6.43,6.43,0,0,1-.12,1.16,2.58,2.58,0,0,1-.48.67c-.17-.22-.49-.43-.5-.66,0-1.13,0-2.26,0-3.38,0-.25.29-.49.45-.73a3.75,3.75,0,0,1,.54.78,4.27,4.27,0,0,1,.12,1h1.78a1.57,1.57,0,0,0,.19-.26c.23-.51.45-1,.68-1.55a12.74,12.74,0,0,1,.41,1.7,11.24,11.24,0,0,1,0,2.17,3,3,0,0,1-.48.92,4.35,4.35,0,0,1-.48-.84A4.63,4.63,0,0,1,63.79,38.26Z"/><path class="cls-6" d="M59.39,40.09H56.75a.93.93,0,0,1-.52-.18c-1.15-1-.72-2.26-.62-3.43.08-.92.86-1.23,1.76-1.22h.28c.6.17,1.2.37,1.79.53a6,6,0,0,1-1.73.43c-1.14,0-1.24.55-1.18,1.36s-.26,1.74,1.14,1.69a15.62,15.62,0,0,1,1.8.16Z"/><path class="cls-7" d="M46.49,36.33a4.05,4.05,0,0,1-.92-.1,5.24,5.24,0,0,1-.76-.45c.27-.18.53-.49.82-.51a15.39,15.39,0,0,1,2.54,0,3.4,3.4,0,0,1,1,.45c-.32.18-.63.36-1,.53a3.59,3.59,0,0,1-.72.11c0,.94,0,1.88,0,2.81,0,.32-.33.61-.5.92a2.93,2.93,0,0,1-.48-1C46.45,38.23,46.49,37.33,46.49,36.33Z"/><path class="cls-8" d="M51.46,38.74c.45.1.91.16,1.35.29s1,.33,1.52.51a6.53,6.53,0,0,1-1.6.53c-.54,0-1.39,0-1.69-.36a2.47,2.47,0,0,1-.47-1.85c0-.29.93-.53,1.46-.63a5.32,5.32,0,0,1,1.69,0c.21,0,.38.3.57.46-.19.15-.38.41-.59.43-.71.05-1.44,0-2.16,0Z"/><path class="cls-5" d="M50.19,35.28c1.5,0,2.67,0,3.85,0,0,0,.2.58.08.7C53.67,36.47,51,36.14,50.19,35.28Z"/></g></g></g></g></svg>